<?xml version="1.0" encoding="utf-8" standalone="no"?>
<!DOCTYPE svg PUBLIC "-//W3C//DTD SVG 1.1//EN"
  "http://www.w3.org/Graphics/SVG/1.1/DTD/svg11.dtd">
<svg xmlns:xlink="http://www.w3.org/1999/xlink" width="414.319375pt" height="285.0475pt" viewBox="0 0 414.319375 285.0475" xmlns="http://www.w3.org/2000/svg" version="1.1">
 <metadata>
  <rdf:RDF xmlns:dc="http://purl.org/dc/elements/1.1/" xmlns:cc="http://creativecommons.org/ns#" xmlns:rdf="http://www.w3.org/1999/02/22-rdf-syntax-ns#">
   <cc:Work>
    <dc:type rdf:resource="http://purl.org/dc/dcmitype/StillImage"/>
    <dc:date>2025-11-08T11:20:22.991733</dc:date>
    <dc:format>image/svg+xml</dc:format>
    <dc:creator>
     <cc:Agent>
      <dc:title>Matplotlib v3.6.3, https://matplotlib.org/</dc:title>
     </cc:Agent>
    </dc:creator>
   </cc:Work>
  </rdf:RDF>
 </metadata>
 <defs>
  <style type="text/css">*{stroke-linejoin: round; stroke-linecap: butt}</style>
 </defs>
 <g id="figure_1">
  <g id="patch_1">
   <path d="M 0 285.0475 
L 414.319375 285.0475 
L 414.319375 0 
L 0 0 
z
" style="fill: #ffffff"/>
  </g>
  <g id="axes_1">
   <g id="patch_2">
    <path d="M 55.479375 247.12 
L 390.279375 247.12 
L 390.279375 25.36 
L 55.479375 25.36 
z
" style="fill: #ffffff"/>
   </g>
   <g id="matplotlib.axis_1">
    <g id="xtick_1">
     <g id="line2d_1">
      <path d="M 70.697557 247.12 
L 70.697557 25.36 
" clip-path="url(#pe44a274957)" style="fill: none; stroke-dasharray: 2.22,0.96; stroke-dashoffset: 0; stroke: #b0b0b0; stroke-opacity: 0.7; stroke-width: 0.6"/>
     </g>
     <g id="line2d_2">
      <defs>
       <path id="m4966a67233" d="M 0 0 
L 0 -3.5 
" style="stroke: #1a1a1a; stroke-width: 0.8"/>
      </defs>
      <g>
       <use xlink:href="#m4966a67233" x="70.697557" y="247.12" style="fill: #1a1a1a; stroke: #1a1a1a; stroke-width: 0.8"/>
      </g>
     </g>
     <g id="text_1">
      <!-- 0.00 -->
      <g style="fill: #1a1a1a" transform="translate(57.338182 259.738125) scale(0.12 -0.12)">
       <defs>
        <path id="DejaVuSans-30" d="M 2034 4250 
Q 1547 4250 1301 3770 
Q 1056 3291 1056 2328 
Q 1056 1369 1301 889 
Q 1547 409 2034 409 
Q 2525 409 2770 889 
Q 3016 1369 3016 2328 
Q 3016 3291 2770 3770 
Q 2525 4250 2034 4250 
z
M 2034 4750 
Q 2819 4750 3233 4129 
Q 3647 3509 3647 2328 
Q 3647 1150 3233 529 
Q 2819 -91 2034 -91 
Q 1250 -91 836 529 
Q 422 1150 422 2328 
Q 422 3509 836 4129 
Q 1250 4750 2034 4750 
z
" transform="scale(0.015625)"/>
        <path id="DejaVuSans-2e" d="M 684 794 
L 1344 794 
L 1344 0 
L 684 0 
L 684 794 
z
" transform="scale(0.015625)"/>
       </defs>
       <use xlink:href="#DejaVuSans-30"/>
       <use xlink:href="#DejaVuSans-2e" x="63.623047"/>
       <use xlink:href="#DejaVuSans-30" x="95.410156"/>
       <use xlink:href="#DejaVuSans-30" x="159.033203"/>
      </g>
     </g>
    </g>
    <g id="xtick_2">
     <g id="line2d_3">
      <path d="M 108.743011 247.12 
L 108.743011 25.36 
" clip-path="url(#pe44a274957)" style="fill: none; stroke-dasharray: 2.22,0.96; stroke-dashoffset: 0; stroke: #b0b0b0; stroke-opacity: 0.7; stroke-width: 0.6"/>
     </g>
     <g id="line2d_4">
      <g>
       <use xlink:href="#m4966a67233" x="108.743011" y="247.12" style="fill: #1a1a1a; stroke: #1a1a1a; stroke-width: 0.8"/>
      </g>
     </g>
     <g id="text_2">
      <!-- 0.25 -->
      <g style="fill: #1a1a1a" transform="translate(95.383636 259.738125) scale(0.12 -0.12)">
       <defs>
        <path id="DejaVuSans-32" d="M 1228 531 
L 3431 531 
L 3431 0 
L 469 0 
L 469 531 
Q 828 903 1448 1529 
Q 2069 2156 2228 2338 
Q 2531 2678 2651 2914 
Q 2772 3150 2772 3378 
Q 2772 3750 2511 3984 
Q 2250 4219 1831 4219 
Q 1534 4219 1204 4116 
Q 875 4013 500 3803 
L 500 4441 
Q 881 4594 1212 4672 
Q 1544 4750 1819 4750 
Q 2544 4750 2975 4387 
Q 3406 4025 3406 3419 
Q 3406 3131 3298 2873 
Q 3191 2616 2906 2266 
Q 2828 2175 2409 1742 
Q 1991 1309 1228 531 
z
" transform="scale(0.015625)"/>
        <path id="DejaVuSans-35" d="M 691 4666 
L 3169 4666 
L 3169 4134 
L 1269 4134 
L 1269 2991 
Q 1406 3038 1543 3061 
Q 1681 3084 1819 3084 
Q 2600 3084 3056 2656 
Q 3513 2228 3513 1497 
Q 3513 744 3044 326 
Q 2575 -91 1722 -91 
Q 1428 -91 1123 -41 
Q 819 9 494 109 
L 494 744 
Q 775 591 1075 516 
Q 1375 441 1709 441 
Q 2250 441 2565 725 
Q 2881 1009 2881 1497 
Q 2881 1984 2565 2268 
Q 2250 2553 1709 2553 
Q 1456 2553 1204 2497 
Q 953 2441 691 2322 
L 691 4666 
z
" transform="scale(0.015625)"/>
       </defs>
       <use xlink:href="#DejaVuSans-30"/>
       <use xlink:href="#DejaVuSans-2e" x="63.623047"/>
       <use xlink:href="#DejaVuSans-32" x="95.410156"/>
       <use xlink:href="#DejaVuSans-35" x="159.033203"/>
      </g>
     </g>
    </g>
    <g id="xtick_3">
     <g id="line2d_5">
      <path d="M 146.788466 247.12 
L 146.788466 25.36 
" clip-path="url(#pe44a274957)" style="fill: none; stroke-dasharray: 2.22,0.96; stroke-dashoffset: 0; stroke: #b0b0b0; stroke-opacity: 0.7; stroke-width: 0.6"/>
     </g>
     <g id="line2d_6">
      <g>
       <use xlink:href="#m4966a67233" x="146.788466" y="247.12" style="fill: #1a1a1a; stroke: #1a1a1a; stroke-width: 0.8"/>
      </g>
     </g>
     <g id="text_3">
      <!-- 0.50 -->
      <g style="fill: #1a1a1a" transform="translate(133.429091 259.738125) scale(0.12 -0.12)">
       <use xlink:href="#DejaVuSans-30"/>
       <use xlink:href="#DejaVuSans-2e" x="63.623047"/>
       <use xlink:href="#DejaVuSans-35" x="95.410156"/>
       <use xlink:href="#DejaVuSans-30" x="159.033203"/>
      </g>
     </g>
    </g>
    <g id="xtick_4">
     <g id="line2d_7">
      <path d="M 184.83392 247.12 
L 184.83392 25.36 
" clip-path="url(#pe44a274957)" style="fill: none; stroke-dasharray: 2.22,0.96; stroke-dashoffset: 0; stroke: #b0b0b0; stroke-opacity: 0.7; stroke-width: 0.6"/>
     </g>
     <g id="line2d_8">
      <g>
       <use xlink:href="#m4966a67233" x="184.83392" y="247.12" style="fill: #1a1a1a; stroke: #1a1a1a; stroke-width: 0.8"/>
      </g>
     </g>
     <g id="text_4">
      <!-- 0.75 -->
      <g style="fill: #1a1a1a" transform="translate(171.474545 259.738125) scale(0.12 -0.12)">
       <defs>
        <path id="DejaVuSans-37" d="M 525 4666 
L 3525 4666 
L 3525 4397 
L 1831 0 
L 1172 0 
L 2766 4134 
L 525 4134 
L 525 4666 
z
" transform="scale(0.015625)"/>
       </defs>
       <use xlink:href="#DejaVuSans-30"/>
       <use xlink:href="#DejaVuSans-2e" x="63.623047"/>
       <use xlink:href="#DejaVuSans-37" x="95.410156"/>
       <use xlink:href="#DejaVuSans-35" x="159.033203"/>
      </g>
     </g>
    </g>
    <g id="xtick_5">
     <g id="line2d_9">
      <path d="M 222.879375 247.12 
L 222.879375 25.36 
" clip-path="url(#pe44a274957)" style="fill: none; stroke-dasharray: 2.22,0.96; stroke-dashoffset: 0; stroke: #b0b0b0; stroke-opacity: 0.7; stroke-width: 0.6"/>
     </g>
     <g id="line2d_10">
      <g>
       <use xlink:href="#m4966a67233" x="222.879375" y="247.12" style="fill: #1a1a1a; stroke: #1a1a1a; stroke-width: 0.8"/>
      </g>
     </g>
     <g id="text_5">
      <!-- 1.00 -->
      <g style="fill: #1a1a1a" transform="translate(209.52 259.738125) scale(0.12 -0.12)">
       <defs>
        <path id="DejaVuSans-31" d="M 794 531 
L 1825 531 
L 1825 4091 
L 703 3866 
L 703 4441 
L 1819 4666 
L 2450 4666 
L 2450 531 
L 3481 531 
L 3481 0 
L 794 0 
L 794 531 
z
" transform="scale(0.015625)"/>
       </defs>
       <use xlink:href="#DejaVuSans-31"/>
       <use xlink:href="#DejaVuSans-2e" x="63.623047"/>
       <use xlink:href="#DejaVuSans-30" x="95.410156"/>
       <use xlink:href="#DejaVuSans-30" x="159.033203"/>
      </g>
     </g>
    </g>
    <g id="xtick_6">
     <g id="line2d_11">
      <path d="M 260.92483 247.12 
L 260.92483 25.36 
" clip-path="url(#pe44a274957)" style="fill: none; stroke-dasharray: 2.22,0.96; stroke-dashoffset: 0; stroke: #b0b0b0; stroke-opacity: 0.7; stroke-width: 0.6"/>
     </g>
     <g id="line2d_12">
      <g>
       <use xlink:href="#m4966a67233" x="260.92483" y="247.12" style="fill: #1a1a1a; stroke: #1a1a1a; stroke-width: 0.8"/>
      </g>
     </g>
     <g id="text_6">
      <!-- 1.25 -->
      <g style="fill: #1a1a1a" transform="translate(247.565455 259.738125) scale(0.12 -0.12)">
       <use xlink:href="#DejaVuSans-31"/>
       <use xlink:href="#DejaVuSans-2e" x="63.623047"/>
       <use xlink:href="#DejaVuSans-32" x="95.410156"/>
       <use xlink:href="#DejaVuSans-35" x="159.033203"/>
      </g>
     </g>
    </g>
    <g id="xtick_7">
     <g id="line2d_13">
      <path d="M 298.970284 247.12 
L 298.970284 25.36 
" clip-path="url(#pe44a274957)" style="fill: none; stroke-dasharray: 2.22,0.96; stroke-dashoffset: 0; stroke: #b0b0b0; stroke-opacity: 0.7; stroke-width: 0.6"/>
     </g>
     <g id="line2d_14">
      <g>
       <use xlink:href="#m4966a67233" x="298.970284" y="247.12" style="fill: #1a1a1a; stroke: #1a1a1a; stroke-width: 0.8"/>
      </g>
     </g>
     <g id="text_7">
      <!-- 1.50 -->
      <g style="fill: #1a1a1a" transform="translate(285.610909 259.738125) scale(0.12 -0.12)">
       <use xlink:href="#DejaVuSans-31"/>
       <use xlink:href="#DejaVuSans-2e" x="63.623047"/>
       <use xlink:href="#DejaVuSans-35" x="95.410156"/>
       <use xlink:href="#DejaVuSans-30" x="159.033203"/>
      </g>
     </g>
    </g>
    <g id="xtick_8">
     <g id="line2d_15">
      <path d="M 337.015739 247.12 
L 337.015739 25.36 
" clip-path="url(#pe44a274957)" style="fill: none; stroke-dasharray: 2.22,0.96; stroke-dashoffset: 0; stroke: #b0b0b0; stroke-opacity: 0.7; stroke-width: 0.6"/>
     </g>
     <g id="line2d_16">
      <g>
       <use xlink:href="#m4966a67233" x="337.015739" y="247.12" style="fill: #1a1a1a; stroke: #1a1a1a; stroke-width: 0.8"/>
      </g>
     </g>
     <g id="text_8">
      <!-- 1.75 -->
      <g style="fill: #1a1a1a" transform="translate(323.656364 259.738125) scale(0.12 -0.12)">
       <use xlink:href="#DejaVuSans-31"/>
       <use xlink:href="#DejaVuSans-2e" x="63.623047"/>
       <use xlink:href="#DejaVuSans-37" x="95.410156"/>
       <use xlink:href="#DejaVuSans-35" x="159.033203"/>
      </g>
     </g>
    </g>
    <g id="xtick_9">
     <g id="line2d_17">
      <path d="M 375.061193 247.12 
L 375.061193 25.36 
" clip-path="url(#pe44a274957)" style="fill: none; stroke-dasharray: 2.22,0.96; stroke-dashoffset: 0; stroke: #b0b0b0; stroke-opacity: 0.7; stroke-width: 0.6"/>
     </g>
     <g id="line2d_18">
      <g>
       <use xlink:href="#m4966a67233" x="375.061193" y="247.12" style="fill: #1a1a1a; stroke: #1a1a1a; stroke-width: 0.8"/>
      </g>
     </g>
     <g id="text_9">
      <!-- 2.00 -->
      <g style="fill: #1a1a1a" transform="translate(361.701818 259.738125) scale(0.12 -0.12)">
       <use xlink:href="#DejaVuSans-32"/>
       <use xlink:href="#DejaVuSans-2e" x="63.623047"/>
       <use xlink:href="#DejaVuSans-30" x="95.410156"/>
       <use xlink:href="#DejaVuSans-30" x="159.033203"/>
      </g>
     </g>
    </g>
    <g id="text_10">
     <!-- Redshift z -->
     <g style="fill: #1a1a1a" transform="translate(193.469063 275.351875) scale(0.12 -0.12)">
      <defs>
       <path id="DejaVuSans-52" d="M 2841 2188 
Q 3044 2119 3236 1894 
Q 3428 1669 3622 1275 
L 4263 0 
L 3584 0 
L 2988 1197 
Q 2756 1666 2539 1819 
Q 2322 1972 1947 1972 
L 1259 1972 
L 1259 0 
L 628 0 
L 628 4666 
L 2053 4666 
Q 2853 4666 3247 4331 
Q 3641 3997 3641 3322 
Q 3641 2881 3436 2590 
Q 3231 2300 2841 2188 
z
M 1259 4147 
L 1259 2491 
L 2053 2491 
Q 2509 2491 2742 2702 
Q 2975 2913 2975 3322 
Q 2975 3731 2742 3939 
Q 2509 4147 2053 4147 
L 1259 4147 
z
" transform="scale(0.015625)"/>
       <path id="DejaVuSans-65" d="M 3597 1894 
L 3597 1613 
L 953 1613 
Q 991 1019 1311 708 
Q 1631 397 2203 397 
Q 2534 397 2845 478 
Q 3156 559 3463 722 
L 3463 178 
Q 3153 47 2828 -22 
Q 2503 -91 2169 -91 
Q 1331 -91 842 396 
Q 353 884 353 1716 
Q 353 2575 817 3079 
Q 1281 3584 2069 3584 
Q 2775 3584 3186 3129 
Q 3597 2675 3597 1894 
z
M 3022 2063 
Q 3016 2534 2758 2815 
Q 2500 3097 2075 3097 
Q 1594 3097 1305 2825 
Q 1016 2553 972 2059 
L 3022 2063 
z
" transform="scale(0.015625)"/>
       <path id="DejaVuSans-64" d="M 2906 2969 
L 2906 4863 
L 3481 4863 
L 3481 0 
L 2906 0 
L 2906 525 
Q 2725 213 2448 61 
Q 2172 -91 1784 -91 
Q 1150 -91 751 415 
Q 353 922 353 1747 
Q 353 2572 751 3078 
Q 1150 3584 1784 3584 
Q 2172 3584 2448 3432 
Q 2725 3281 2906 2969 
z
M 947 1747 
Q 947 1113 1208 752 
Q 1469 391 1925 391 
Q 2381 391 2643 752 
Q 2906 1113 2906 1747 
Q 2906 2381 2643 2742 
Q 2381 3103 1925 3103 
Q 1469 3103 1208 2742 
Q 947 2381 947 1747 
z
" transform="scale(0.015625)"/>
       <path id="DejaVuSans-73" d="M 2834 3397 
L 2834 2853 
Q 2591 2978 2328 3040 
Q 2066 3103 1784 3103 
Q 1356 3103 1142 2972 
Q 928 2841 928 2578 
Q 928 2378 1081 2264 
Q 1234 2150 1697 2047 
L 1894 2003 
Q 2506 1872 2764 1633 
Q 3022 1394 3022 966 
Q 3022 478 2636 193 
Q 2250 -91 1575 -91 
Q 1294 -91 989 -36 
Q 684 19 347 128 
L 347 722 
Q 666 556 975 473 
Q 1284 391 1588 391 
Q 1994 391 2212 530 
Q 2431 669 2431 922 
Q 2431 1156 2273 1281 
Q 2116 1406 1581 1522 
L 1381 1569 
Q 847 1681 609 1914 
Q 372 2147 372 2553 
Q 372 3047 722 3315 
Q 1072 3584 1716 3584 
Q 2034 3584 2315 3537 
Q 2597 3491 2834 3397 
z
" transform="scale(0.015625)"/>
       <path id="DejaVuSans-68" d="M 3513 2113 
L 3513 0 
L 2938 0 
L 2938 2094 
Q 2938 2591 2744 2837 
Q 2550 3084 2163 3084 
Q 1697 3084 1428 2787 
Q 1159 2491 1159 1978 
L 1159 0 
L 581 0 
L 581 4863 
L 1159 4863 
L 1159 2956 
Q 1366 3272 1645 3428 
Q 1925 3584 2291 3584 
Q 2894 3584 3203 3211 
Q 3513 2838 3513 2113 
z
" transform="scale(0.015625)"/>
       <path id="DejaVuSans-69" d="M 603 3500 
L 1178 3500 
L 1178 0 
L 603 0 
L 603 3500 
z
M 603 4863 
L 1178 4863 
L 1178 4134 
L 603 4134 
L 603 4863 
z
" transform="scale(0.015625)"/>
       <path id="DejaVuSans-66" d="M 2375 4863 
L 2375 4384 
L 1825 4384 
Q 1516 4384 1395 4259 
Q 1275 4134 1275 3809 
L 1275 3500 
L 2222 3500 
L 2222 3053 
L 1275 3053 
L 1275 0 
L 697 0 
L 697 3053 
L 147 3053 
L 147 3500 
L 697 3500 
L 697 3744 
Q 697 4328 969 4595 
Q 1241 4863 1831 4863 
L 2375 4863 
z
" transform="scale(0.015625)"/>
       <path id="DejaVuSans-74" d="M 1172 4494 
L 1172 3500 
L 2356 3500 
L 2356 3053 
L 1172 3053 
L 1172 1153 
Q 1172 725 1289 603 
Q 1406 481 1766 481 
L 2356 481 
L 2356 0 
L 1766 0 
Q 1100 0 847 248 
Q 594 497 594 1153 
L 594 3053 
L 172 3053 
L 172 3500 
L 594 3500 
L 594 4494 
L 1172 4494 
z
" transform="scale(0.015625)"/>
       <path id="DejaVuSans-20" transform="scale(0.015625)"/>
       <path id="DejaVuSans-7a" d="M 353 3500 
L 3084 3500 
L 3084 2975 
L 922 459 
L 3084 459 
L 3084 0 
L 275 0 
L 275 525 
L 2438 3041 
L 353 3041 
L 353 3500 
z
" transform="scale(0.015625)"/>
      </defs>
      <use xlink:href="#DejaVuSans-52"/>
      <use xlink:href="#DejaVuSans-65" x="64.982422"/>
      <use xlink:href="#DejaVuSans-64" x="126.505859"/>
      <use xlink:href="#DejaVuSans-73" x="189.982422"/>
      <use xlink:href="#DejaVuSans-68" x="242.082031"/>
      <use xlink:href="#DejaVuSans-69" x="305.460938"/>
      <use xlink:href="#DejaVuSans-66" x="333.244141"/>
      <use xlink:href="#DejaVuSans-74" x="366.699219"/>
      <use xlink:href="#DejaVuSans-20" x="405.908203"/>
      <use xlink:href="#DejaVuSans-7a" x="437.695312"/>
     </g>
    </g>
   </g>
   <g id="matplotlib.axis_2">
    <g id="ytick_1">
     <g id="line2d_19">
      <path d="M 55.479375 240.801324 
L 390.279375 240.801324 
" clip-path="url(#pe44a274957)" style="fill: none; stroke-dasharray: 2.22,0.96; stroke-dashoffset: 0; stroke: #b0b0b0; stroke-opacity: 0.7; stroke-width: 0.6"/>
     </g>
     <g id="line2d_20">
      <defs>
       <path id="m72a1406908" d="M 0 0 
L 3.5 0 
" style="stroke: #1a1a1a; stroke-width: 0.8"/>
      </defs>
      <g>
       <use xlink:href="#m72a1406908" x="55.479375" y="240.801324" style="fill: #1a1a1a; stroke: #1a1a1a; stroke-width: 0.8"/>
      </g>
     </g>
     <g id="text_11">
      <!-- −1.2 -->
      <g style="fill: #1a1a1a" transform="translate(22.84 245.360386) scale(0.12 -0.12)">
       <defs>
        <path id="DejaVuSans-2212" d="M 678 2272 
L 4684 2272 
L 4684 1741 
L 678 1741 
L 678 2272 
z
" transform="scale(0.015625)"/>
       </defs>
       <use xlink:href="#DejaVuSans-2212"/>
       <use xlink:href="#DejaVuSans-31" x="83.789062"/>
       <use xlink:href="#DejaVuSans-2e" x="147.412109"/>
       <use xlink:href="#DejaVuSans-32" x="179.199219"/>
      </g>
     </g>
    </g>
    <g id="ytick_2">
     <g id="line2d_21">
      <path d="M 55.479375 199.729059 
L 390.279375 199.729059 
" clip-path="url(#pe44a274957)" style="fill: none; stroke-dasharray: 2.22,0.96; stroke-dashoffset: 0; stroke: #b0b0b0; stroke-opacity: 0.7; stroke-width: 0.6"/>
     </g>
     <g id="line2d_22">
      <g>
       <use xlink:href="#m72a1406908" x="55.479375" y="199.729059" style="fill: #1a1a1a; stroke: #1a1a1a; stroke-width: 0.8"/>
      </g>
     </g>
     <g id="text_12">
      <!-- −1.0 -->
      <g style="fill: #1a1a1a" transform="translate(22.84 204.288122) scale(0.12 -0.12)">
       <use xlink:href="#DejaVuSans-2212"/>
       <use xlink:href="#DejaVuSans-31" x="83.789062"/>
       <use xlink:href="#DejaVuSans-2e" x="147.412109"/>
       <use xlink:href="#DejaVuSans-30" x="179.199219"/>
      </g>
     </g>
    </g>
    <g id="ytick_3">
     <g id="line2d_23">
      <path d="M 55.479375 158.656794 
L 390.279375 158.656794 
" clip-path="url(#pe44a274957)" style="fill: none; stroke-dasharray: 2.22,0.96; stroke-dashoffset: 0; stroke: #b0b0b0; stroke-opacity: 0.7; stroke-width: 0.6"/>
     </g>
     <g id="line2d_24">
      <g>
       <use xlink:href="#m72a1406908" x="55.479375" y="158.656794" style="fill: #1a1a1a; stroke: #1a1a1a; stroke-width: 0.8"/>
      </g>
     </g>
     <g id="text_13">
      <!-- −0.8 -->
      <g style="fill: #1a1a1a" transform="translate(22.84 163.215857) scale(0.12 -0.12)">
       <defs>
        <path id="DejaVuSans-38" d="M 2034 2216 
Q 1584 2216 1326 1975 
Q 1069 1734 1069 1313 
Q 1069 891 1326 650 
Q 1584 409 2034 409 
Q 2484 409 2743 651 
Q 3003 894 3003 1313 
Q 3003 1734 2745 1975 
Q 2488 2216 2034 2216 
z
M 1403 2484 
Q 997 2584 770 2862 
Q 544 3141 544 3541 
Q 544 4100 942 4425 
Q 1341 4750 2034 4750 
Q 2731 4750 3128 4425 
Q 3525 4100 3525 3541 
Q 3525 3141 3298 2862 
Q 3072 2584 2669 2484 
Q 3125 2378 3379 2068 
Q 3634 1759 3634 1313 
Q 3634 634 3220 271 
Q 2806 -91 2034 -91 
Q 1263 -91 848 271 
Q 434 634 434 1313 
Q 434 1759 690 2068 
Q 947 2378 1403 2484 
z
M 1172 3481 
Q 1172 3119 1398 2916 
Q 1625 2713 2034 2713 
Q 2441 2713 2670 2916 
Q 2900 3119 2900 3481 
Q 2900 3844 2670 4047 
Q 2441 4250 2034 4250 
Q 1625 4250 1398 4047 
Q 1172 3844 1172 3481 
z
" transform="scale(0.015625)"/>
       </defs>
       <use xlink:href="#DejaVuSans-2212"/>
       <use xlink:href="#DejaVuSans-30" x="83.789062"/>
       <use xlink:href="#DejaVuSans-2e" x="147.412109"/>
       <use xlink:href="#DejaVuSans-38" x="179.199219"/>
      </g>
     </g>
    </g>
    <g id="ytick_4">
     <g id="line2d_25">
      <path d="M 55.479375 117.58453 
L 390.279375 117.58453 
" clip-path="url(#pe44a274957)" style="fill: none; stroke-dasharray: 2.22,0.96; stroke-dashoffset: 0; stroke: #b0b0b0; stroke-opacity: 0.7; stroke-width: 0.6"/>
     </g>
     <g id="line2d_26">
      <g>
       <use xlink:href="#m72a1406908" x="55.479375" y="117.58453" style="fill: #1a1a1a; stroke: #1a1a1a; stroke-width: 0.8"/>
      </g>
     </g>
     <g id="text_14">
      <!-- −0.6 -->
      <g style="fill: #1a1a1a" transform="translate(22.84 122.143592) scale(0.12 -0.12)">
       <defs>
        <path id="DejaVuSans-36" d="M 2113 2584 
Q 1688 2584 1439 2293 
Q 1191 2003 1191 1497 
Q 1191 994 1439 701 
Q 1688 409 2113 409 
Q 2538 409 2786 701 
Q 3034 994 3034 1497 
Q 3034 2003 2786 2293 
Q 2538 2584 2113 2584 
z
M 3366 4563 
L 3366 3988 
Q 3128 4100 2886 4159 
Q 2644 4219 2406 4219 
Q 1781 4219 1451 3797 
Q 1122 3375 1075 2522 
Q 1259 2794 1537 2939 
Q 1816 3084 2150 3084 
Q 2853 3084 3261 2657 
Q 3669 2231 3669 1497 
Q 3669 778 3244 343 
Q 2819 -91 2113 -91 
Q 1303 -91 875 529 
Q 447 1150 447 2328 
Q 447 3434 972 4092 
Q 1497 4750 2381 4750 
Q 2619 4750 2861 4703 
Q 3103 4656 3366 4563 
z
" transform="scale(0.015625)"/>
       </defs>
       <use xlink:href="#DejaVuSans-2212"/>
       <use xlink:href="#DejaVuSans-30" x="83.789062"/>
       <use xlink:href="#DejaVuSans-2e" x="147.412109"/>
       <use xlink:href="#DejaVuSans-36" x="179.199219"/>
      </g>
     </g>
    </g>
    <g id="ytick_5">
     <g id="line2d_27">
      <path d="M 55.479375 76.512265 
L 390.279375 76.512265 
" clip-path="url(#pe44a274957)" style="fill: none; stroke-dasharray: 2.22,0.96; stroke-dashoffset: 0; stroke: #b0b0b0; stroke-opacity: 0.7; stroke-width: 0.6"/>
     </g>
     <g id="line2d_28">
      <g>
       <use xlink:href="#m72a1406908" x="55.479375" y="76.512265" style="fill: #1a1a1a; stroke: #1a1a1a; stroke-width: 0.8"/>
      </g>
     </g>
     <g id="text_15">
      <!-- −0.4 -->
      <g style="fill: #1a1a1a" transform="translate(22.84 81.071327) scale(0.12 -0.12)">
       <defs>
        <path id="DejaVuSans-34" d="M 2419 4116 
L 825 1625 
L 2419 1625 
L 2419 4116 
z
M 2253 4666 
L 3047 4666 
L 3047 1625 
L 3713 1625 
L 3713 1100 
L 3047 1100 
L 3047 0 
L 2419 0 
L 2419 1100 
L 313 1100 
L 313 1709 
L 2253 4666 
z
" transform="scale(0.015625)"/>
       </defs>
       <use xlink:href="#DejaVuSans-2212"/>
       <use xlink:href="#DejaVuSans-30" x="83.789062"/>
       <use xlink:href="#DejaVuSans-2e" x="147.412109"/>
       <use xlink:href="#DejaVuSans-34" x="179.199219"/>
      </g>
     </g>
    </g>
    <g id="ytick_6">
     <g id="line2d_29">
      <path d="M 55.479375 35.44 
L 390.279375 35.44 
" clip-path="url(#pe44a274957)" style="fill: none; stroke-dasharray: 2.22,0.96; stroke-dashoffset: 0; stroke: #b0b0b0; stroke-opacity: 0.7; stroke-width: 0.6"/>
     </g>
     <g id="line2d_30">
      <g>
       <use xlink:href="#m72a1406908" x="55.479375" y="35.44" style="fill: #1a1a1a; stroke: #1a1a1a; stroke-width: 0.8"/>
      </g>
     </g>
     <g id="text_16">
      <!-- −0.2 -->
      <g style="fill: #1a1a1a" transform="translate(22.84 39.999063) scale(0.12 -0.12)">
       <use xlink:href="#DejaVuSans-2212"/>
       <use xlink:href="#DejaVuSans-30" x="83.789062"/>
       <use xlink:href="#DejaVuSans-2e" x="147.412109"/>
       <use xlink:href="#DejaVuSans-32" x="179.199219"/>
      </g>
     </g>
    </g>
    <g id="text_17">
     <!-- Effective Equation of State $w_{\mathrm{eff}}$ -->
     <g style="fill: #1a1a1a" transform="translate(16.32 229) rotate(-90) scale(0.12 -0.12)">
      <defs>
       <path id="DejaVuSans-45" d="M 628 4666 
L 3578 4666 
L 3578 4134 
L 1259 4134 
L 1259 2753 
L 3481 2753 
L 3481 2222 
L 1259 2222 
L 1259 531 
L 3634 531 
L 3634 0 
L 628 0 
L 628 4666 
z
" transform="scale(0.015625)"/>
       <path id="DejaVuSans-63" d="M 3122 3366 
L 3122 2828 
Q 2878 2963 2633 3030 
Q 2388 3097 2138 3097 
Q 1578 3097 1268 2742 
Q 959 2388 959 1747 
Q 959 1106 1268 751 
Q 1578 397 2138 397 
Q 2388 397 2633 464 
Q 2878 531 3122 666 
L 3122 134 
Q 2881 22 2623 -34 
Q 2366 -91 2075 -91 
Q 1284 -91 818 406 
Q 353 903 353 1747 
Q 353 2603 823 3093 
Q 1294 3584 2113 3584 
Q 2378 3584 2631 3529 
Q 2884 3475 3122 3366 
z
" transform="scale(0.015625)"/>
       <path id="DejaVuSans-76" d="M 191 3500 
L 800 3500 
L 1894 563 
L 2988 3500 
L 3597 3500 
L 2284 0 
L 1503 0 
L 191 3500 
z
" transform="scale(0.015625)"/>
       <path id="DejaVuSans-71" d="M 947 1747 
Q 947 1113 1208 752 
Q 1469 391 1925 391 
Q 2381 391 2643 752 
Q 2906 1113 2906 1747 
Q 2906 2381 2643 2742 
Q 2381 3103 1925 3103 
Q 1469 3103 1208 2742 
Q 947 2381 947 1747 
z
M 2906 525 
Q 2725 213 2448 61 
Q 2172 -91 1784 -91 
Q 1150 -91 751 415 
Q 353 922 353 1747 
Q 353 2572 751 3078 
Q 1150 3584 1784 3584 
Q 2172 3584 2448 3432 
Q 2725 3281 2906 2969 
L 2906 3500 
L 3481 3500 
L 3481 -1331 
L 2906 -1331 
L 2906 525 
z
" transform="scale(0.015625)"/>
       <path id="DejaVuSans-75" d="M 544 1381 
L 544 3500 
L 1119 3500 
L 1119 1403 
Q 1119 906 1312 657 
Q 1506 409 1894 409 
Q 2359 409 2629 706 
Q 2900 1003 2900 1516 
L 2900 3500 
L 3475 3500 
L 3475 0 
L 2900 0 
L 2900 538 
Q 2691 219 2414 64 
Q 2138 -91 1772 -91 
Q 1169 -91 856 284 
Q 544 659 544 1381 
z
M 1991 3584 
L 1991 3584 
z
" transform="scale(0.015625)"/>
       <path id="DejaVuSans-61" d="M 2194 1759 
Q 1497 1759 1228 1600 
Q 959 1441 959 1056 
Q 959 750 1161 570 
Q 1363 391 1709 391 
Q 2188 391 2477 730 
Q 2766 1069 2766 1631 
L 2766 1759 
L 2194 1759 
z
M 3341 1997 
L 3341 0 
L 2766 0 
L 2766 531 
Q 2569 213 2275 61 
Q 1981 -91 1556 -91 
Q 1019 -91 701 211 
Q 384 513 384 1019 
Q 384 1609 779 1909 
Q 1175 2209 1959 2209 
L 2766 2209 
L 2766 2266 
Q 2766 2663 2505 2880 
Q 2244 3097 1772 3097 
Q 1472 3097 1187 3025 
Q 903 2953 641 2809 
L 641 3341 
Q 956 3463 1253 3523 
Q 1550 3584 1831 3584 
Q 2591 3584 2966 3190 
Q 3341 2797 3341 1997 
z
" transform="scale(0.015625)"/>
       <path id="DejaVuSans-6f" d="M 1959 3097 
Q 1497 3097 1228 2736 
Q 959 2375 959 1747 
Q 959 1119 1226 758 
Q 1494 397 1959 397 
Q 2419 397 2687 759 
Q 2956 1122 2956 1747 
Q 2956 2369 2687 2733 
Q 2419 3097 1959 3097 
z
M 1959 3584 
Q 2709 3584 3137 3096 
Q 3566 2609 3566 1747 
Q 3566 888 3137 398 
Q 2709 -91 1959 -91 
Q 1206 -91 779 398 
Q 353 888 353 1747 
Q 353 2609 779 3096 
Q 1206 3584 1959 3584 
z
" transform="scale(0.015625)"/>
       <path id="DejaVuSans-6e" d="M 3513 2113 
L 3513 0 
L 2938 0 
L 2938 2094 
Q 2938 2591 2744 2837 
Q 2550 3084 2163 3084 
Q 1697 3084 1428 2787 
Q 1159 2491 1159 1978 
L 1159 0 
L 581 0 
L 581 3500 
L 1159 3500 
L 1159 2956 
Q 1366 3272 1645 3428 
Q 1925 3584 2291 3584 
Q 2894 3584 3203 3211 
Q 3513 2838 3513 2113 
z
" transform="scale(0.015625)"/>
       <path id="DejaVuSans-53" d="M 3425 4513 
L 3425 3897 
Q 3066 4069 2747 4153 
Q 2428 4238 2131 4238 
Q 1616 4238 1336 4038 
Q 1056 3838 1056 3469 
Q 1056 3159 1242 3001 
Q 1428 2844 1947 2747 
L 2328 2669 
Q 3034 2534 3370 2195 
Q 3706 1856 3706 1288 
Q 3706 609 3251 259 
Q 2797 -91 1919 -91 
Q 1588 -91 1214 -16 
Q 841 59 441 206 
L 441 856 
Q 825 641 1194 531 
Q 1563 422 1919 422 
Q 2459 422 2753 634 
Q 3047 847 3047 1241 
Q 3047 1584 2836 1778 
Q 2625 1972 2144 2069 
L 1759 2144 
Q 1053 2284 737 2584 
Q 422 2884 422 3419 
Q 422 4038 858 4394 
Q 1294 4750 2059 4750 
Q 2388 4750 2728 4690 
Q 3069 4631 3425 4513 
z
" transform="scale(0.015625)"/>
       <path id="DejaVuSans-Oblique-77" d="M 544 3500 
L 1113 3500 
L 1259 684 
L 2566 3500 
L 3231 3500 
L 3425 684 
L 4666 3500 
L 5241 3500 
L 3641 0 
L 2969 0 
L 2797 2900 
L 1459 0 
L 781 0 
L 544 3500 
z
" transform="scale(0.015625)"/>
      </defs>
      <use xlink:href="#DejaVuSans-45" transform="translate(0 0.015625)"/>
      <use xlink:href="#DejaVuSans-66" transform="translate(63.183594 0.015625)"/>
      <use xlink:href="#DejaVuSans-66" transform="translate(98.388672 0.015625)"/>
      <use xlink:href="#DejaVuSans-65" transform="translate(133.59375 0.015625)"/>
      <use xlink:href="#DejaVuSans-63" transform="translate(195.117188 0.015625)"/>
      <use xlink:href="#DejaVuSans-74" transform="translate(250.097656 0.015625)"/>
      <use xlink:href="#DejaVuSans-69" transform="translate(289.306641 0.015625)"/>
      <use xlink:href="#DejaVuSans-76" transform="translate(317.089844 0.015625)"/>
      <use xlink:href="#DejaVuSans-65" transform="translate(376.269531 0.015625)"/>
      <use xlink:href="#DejaVuSans-20" transform="translate(437.792969 0.015625)"/>
      <use xlink:href="#DejaVuSans-45" transform="translate(469.580078 0.015625)"/>
      <use xlink:href="#DejaVuSans-71" transform="translate(532.763672 0.015625)"/>
      <use xlink:href="#DejaVuSans-75" transform="translate(596.240234 0.015625)"/>
      <use xlink:href="#DejaVuSans-61" transform="translate(659.619141 0.015625)"/>
      <use xlink:href="#DejaVuSans-74" transform="translate(720.898438 0.015625)"/>
      <use xlink:href="#DejaVuSans-69" transform="translate(760.107422 0.015625)"/>
      <use xlink:href="#DejaVuSans-6f" transform="translate(787.890625 0.015625)"/>
      <use xlink:href="#DejaVuSans-6e" transform="translate(849.072266 0.015625)"/>
      <use xlink:href="#DejaVuSans-20" transform="translate(912.451172 0.015625)"/>
      <use xlink:href="#DejaVuSans-6f" transform="translate(944.238281 0.015625)"/>
      <use xlink:href="#DejaVuSans-66" transform="translate(1005.419922 0.015625)"/>
      <use xlink:href="#DejaVuSans-20" transform="translate(1040.625 0.015625)"/>
      <use xlink:href="#DejaVuSans-53" transform="translate(1072.412109 0.015625)"/>
      <use xlink:href="#DejaVuSans-74" transform="translate(1135.888672 0.015625)"/>
      <use xlink:href="#DejaVuSans-61" transform="translate(1175.097656 0.015625)"/>
      <use xlink:href="#DejaVuSans-74" transform="translate(1236.376953 0.015625)"/>
      <use xlink:href="#DejaVuSans-65" transform="translate(1275.585938 0.015625)"/>
      <use xlink:href="#DejaVuSans-20" transform="translate(1337.109375 0.015625)"/>
      <use xlink:href="#DejaVuSans-Oblique-77" transform="translate(1368.896484 0.015625)"/>
      <use xlink:href="#DejaVuSans-65" transform="translate(1450.683594 -16.390625) scale(0.7)"/>
      <use xlink:href="#DejaVuSans-66" transform="translate(1493.75 -16.390625) scale(0.7)"/>
      <use xlink:href="#DejaVuSans-66" transform="translate(1518.393555 -16.390625) scale(0.7)"/>
     </g>
    </g>
   </g>
   <g id="line2d_31">
    <path d="M 70.697557 35.44 
L 74.769311 46.140384 
L 78.841065 56.283222 
L 82.91282 65.897566 
L 86.984574 75.010954 
L 91.056328 83.649487 
L 95.128083 91.837907 
L 99.199837 99.599669 
L 103.271591 106.957003 
L 107.343346 113.930982 
L 111.4151 120.541581 
L 115.486854 126.807734 
L 120.576547 134.183299 
L 125.66624 141.081653 
L 130.755933 147.533673 
L 135.845626 153.568237 
L 140.935319 159.212356 
L 146.025012 164.491291 
L 151.114705 169.42867 
L 156.204398 174.046593 
L 161.294091 178.36573 
L 166.383784 182.405411 
L 171.473477 186.183719 
L 176.563169 189.717564 
L 182.670801 193.657685 
L 188.778432 197.293903 
L 194.886064 200.649657 
L 200.993695 203.746579 
L 207.101327 206.604634 
L 213.208958 209.242246 
L 220.334529 212.063453 
L 227.460099 214.63246 
L 234.585669 216.971811 
L 242.729177 219.390396 
L 250.872686 221.563506 
L 259.016195 223.516056 
L 268.177642 225.476818 
L 277.339089 227.21516 
L 287.518475 228.916377 
L 298.715799 230.542733 
L 309.913124 231.946536 
L 322.128387 233.259808 
L 335.361588 234.463661 
L 350.630667 235.615954 
L 366.917685 236.61512 
L 375.061193 237.04 
L 375.061193 237.04 
" clip-path="url(#pe44a274957)" style="fill: none; stroke: #e69f00; stroke-width: 2; stroke-linecap: square"/>
   </g>
   <g id="line2d_32">
    <path d="M 55.479375 199.729059 
L 390.279375 199.729059 
" clip-path="url(#pe44a274957)" style="fill: none; stroke-dasharray: 5.55,2.4; stroke-dashoffset: 0; stroke: #808080; stroke-width: 1.5"/>
   </g>
   <g id="patch_3">
    <path d="M 55.479375 247.12 
L 55.479375 25.36 
" style="fill: none; stroke: #1a1a1a; stroke-linejoin: miter; stroke-linecap: square"/>
   </g>
   <g id="patch_4">
    <path d="M 55.479375 247.12 
L 390.279375 247.12 
" style="fill: none; stroke: #1a1a1a; stroke-linejoin: miter; stroke-linecap: square"/>
   </g>
   <g id="text_18">
    <!-- Evolution of Effective Equation of State $w_{\mathrm{eff}}(z)$ -->
    <g style="fill: #333333" transform="translate(38.639375 19.36) scale(0.16 -0.16)">
     <defs>
      <path id="DejaVuSans-6c" d="M 603 4863 
L 1178 4863 
L 1178 0 
L 603 0 
L 603 4863 
z
" transform="scale(0.015625)"/>
      <path id="DejaVuSans-28" d="M 1984 4856 
Q 1566 4138 1362 3434 
Q 1159 2731 1159 2009 
Q 1159 1288 1364 580 
Q 1569 -128 1984 -844 
L 1484 -844 
Q 1016 -109 783 600 
Q 550 1309 550 2009 
Q 550 2706 781 3412 
Q 1013 4119 1484 4856 
L 1984 4856 
z
" transform="scale(0.015625)"/>
      <path id="DejaVuSans-Oblique-7a" d="M 744 3500 
L 3475 3500 
L 3372 2975 
L 738 459 
L 2913 459 
L 2822 0 
L -19 0 
L 84 525 
L 2719 3041 
L 653 3041 
L 744 3500 
z
" transform="scale(0.015625)"/>
      <path id="DejaVuSans-29" d="M 513 4856 
L 1013 4856 
Q 1481 4119 1714 3412 
Q 1947 2706 1947 2009 
Q 1947 1309 1714 600 
Q 1481 -109 1013 -844 
L 513 -844 
Q 928 -128 1133 580 
Q 1338 1288 1338 2009 
Q 1338 2731 1133 3434 
Q 928 4138 513 4856 
z
" transform="scale(0.015625)"/>
     </defs>
     <use xlink:href="#DejaVuSans-45" transform="translate(0 0.015625)"/>
     <use xlink:href="#DejaVuSans-76" transform="translate(63.183594 0.015625)"/>
     <use xlink:href="#DejaVuSans-6f" transform="translate(122.363281 0.015625)"/>
     <use xlink:href="#DejaVuSans-6c" transform="translate(183.544922 0.015625)"/>
     <use xlink:href="#DejaVuSans-75" transform="translate(211.328125 0.015625)"/>
     <use xlink:href="#DejaVuSans-74" transform="translate(274.707031 0.015625)"/>
     <use xlink:href="#DejaVuSans-69" transform="translate(313.916016 0.015625)"/>
     <use xlink:href="#DejaVuSans-6f" transform="translate(341.699219 0.015625)"/>
     <use xlink:href="#DejaVuSans-6e" transform="translate(402.880859 0.015625)"/>
     <use xlink:href="#DejaVuSans-20" transform="translate(466.259766 0.015625)"/>
     <use xlink:href="#DejaVuSans-6f" transform="translate(498.046875 0.015625)"/>
     <use xlink:href="#DejaVuSans-66" transform="translate(559.228516 0.015625)"/>
     <use xlink:href="#DejaVuSans-20" transform="translate(594.433594 0.015625)"/>
     <use xlink:href="#DejaVuSans-45" transform="translate(626.220703 0.015625)"/>
     <use xlink:href="#DejaVuSans-66" transform="translate(689.404297 0.015625)"/>
     <use xlink:href="#DejaVuSans-66" transform="translate(724.609375 0.015625)"/>
     <use xlink:href="#DejaVuSans-65" transform="translate(759.814453 0.015625)"/>
     <use xlink:href="#DejaVuSans-63" transform="translate(821.337891 0.015625)"/>
     <use xlink:href="#DejaVuSans-74" transform="translate(876.318359 0.015625)"/>
     <use xlink:href="#DejaVuSans-69" transform="translate(915.527344 0.015625)"/>
     <use xlink:href="#DejaVuSans-76" transform="translate(943.310547 0.015625)"/>
     <use xlink:href="#DejaVuSans-65" transform="translate(1002.490234 0.015625)"/>
     <use xlink:href="#DejaVuSans-20" transform="translate(1064.013672 0.015625)"/>
     <use xlink:href="#DejaVuSans-45" transform="translate(1095.800781 0.015625)"/>
     <use xlink:href="#DejaVuSans-71" transform="translate(1158.984375 0.015625)"/>
     <use xlink:href="#DejaVuSans-75" transform="translate(1222.460938 0.015625)"/>
     <use xlink:href="#DejaVuSans-61" transform="translate(1285.839844 0.015625)"/>
     <use xlink:href="#DejaVuSans-74" transform="translate(1347.119141 0.015625)"/>
     <use xlink:href="#DejaVuSans-69" transform="translate(1386.328125 0.015625)"/>
     <use xlink:href="#DejaVuSans-6f" transform="translate(1414.111328 0.015625)"/>
     <use xlink:href="#DejaVuSans-6e" transform="translate(1475.292969 0.015625)"/>
     <use xlink:href="#DejaVuSans-20" transform="translate(1538.671875 0.015625)"/>
     <use xlink:href="#DejaVuSans-6f" transform="translate(1570.458984 0.015625)"/>
     <use xlink:href="#DejaVuSans-66" transform="translate(1631.640625 0.015625)"/>
     <use xlink:href="#DejaVuSans-20" transform="translate(1666.845703 0.015625)"/>
     <use xlink:href="#DejaVuSans-53" transform="translate(1698.632812 0.015625)"/>
     <use xlink:href="#DejaVuSans-74" transform="translate(1762.109375 0.015625)"/>
     <use xlink:href="#DejaVuSans-61" transform="translate(1801.318359 0.015625)"/>
     <use xlink:href="#DejaVuSans-74" transform="translate(1862.597656 0.015625)"/>
     <use xlink:href="#DejaVuSans-65" transform="translate(1901.806641 0.015625)"/>
     <use xlink:href="#DejaVuSans-20" transform="translate(1963.330078 0.015625)"/>
     <use xlink:href="#DejaVuSans-Oblique-77" transform="translate(1995.117188 0.015625)"/>
     <use xlink:href="#DejaVuSans-65" transform="translate(2076.904297 -16.390625) scale(0.7)"/>
     <use xlink:href="#DejaVuSans-66" transform="translate(2119.970703 -16.390625) scale(0.7)"/>
     <use xlink:href="#DejaVuSans-66" transform="translate(2144.614258 -16.390625) scale(0.7)"/>
     <use xlink:href="#DejaVuSans-28" transform="translate(2171.992188 0.015625)"/>
     <use xlink:href="#DejaVuSans-Oblique-7a" transform="translate(2211.005859 0.015625)"/>
     <use xlink:href="#DejaVuSans-29" transform="translate(2263.496094 0.015625)"/>
    </g>
   </g>
   <g id="legend_1">
    <g id="patch_5">
     <path d="M 312.179375 62.71625 
L 383.279375 62.71625 
Q 385.279375 62.71625 385.279375 60.71625 
L 385.279375 32.36 
Q 385.279375 30.36 383.279375 30.36 
L 312.179375 30.36 
Q 310.179375 30.36 310.179375 32.36 
L 310.179375 60.71625 
Q 310.179375 62.71625 312.179375 62.71625 
z
" style="fill: #ffffff; opacity: 0.8; stroke: #cccccc; stroke-linejoin: miter"/>
    </g>
    <g id="line2d_33">
     <path d="M 314.179375 38.458438 
L 324.179375 38.458438 
L 334.179375 38.458438 
" style="fill: none; stroke: #e69f00; stroke-width: 2; stroke-linecap: square"/>
    </g>
    <g id="text_19">
     <!-- $w_{\mathrm{eff}}(z)$ -->
     <g style="fill: #333333" transform="translate(342.179375 41.958438) scale(0.1 -0.1)">
      <use xlink:href="#DejaVuSans-Oblique-77" transform="translate(0 0.125)"/>
      <use xlink:href="#DejaVuSans-65" transform="translate(81.787109 -16.28125) scale(0.7)"/>
      <use xlink:href="#DejaVuSans-66" transform="translate(124.853516 -16.28125) scale(0.7)"/>
      <use xlink:href="#DejaVuSans-66" transform="translate(149.49707 -16.28125) scale(0.7)"/>
      <use xlink:href="#DejaVuSans-28" transform="translate(176.875 0.125)"/>
      <use xlink:href="#DejaVuSans-Oblique-7a" transform="translate(215.888672 0.125)"/>
      <use xlink:href="#DejaVuSans-29" transform="translate(268.378906 0.125)"/>
     </g>
    </g>
    <g id="line2d_34">
     <path d="M 314.179375 53.136562 
L 324.179375 53.136562 
L 334.179375 53.136562 
" style="fill: none; stroke-dasharray: 5.55,2.4; stroke-dashoffset: 0; stroke: #808080; stroke-width: 1.5"/>
    </g>
    <g id="text_20">
     <!-- $w=-1$ -->
     <g style="fill: #333333" transform="translate(342.179375 56.636562) scale(0.1 -0.1)">
      <defs>
       <path id="DejaVuSans-3d" d="M 678 2906 
L 4684 2906 
L 4684 2381 
L 678 2381 
L 678 2906 
z
M 678 1631 
L 4684 1631 
L 4684 1100 
L 678 1100 
L 678 1631 
z
" transform="scale(0.015625)"/>
      </defs>
      <use xlink:href="#DejaVuSans-Oblique-77" transform="translate(0 0.09375)"/>
      <use xlink:href="#DejaVuSans-3d" transform="translate(101.269531 0.09375)"/>
      <use xlink:href="#DejaVuSans-2212" transform="translate(224.023438 0.09375)"/>
      <use xlink:href="#DejaVuSans-31" transform="translate(327.294922 0.09375)"/>
     </g>
    </g>
   </g>
  </g>
 </g>
 <defs>
  <clipPath id="pe44a274957">
   <rect x="55.479375" y="25.36" width="334.8" height="221.76"/>
  </clipPath>
 </defs>
</svg>
